<?xml version="1.0" encoding="UTF-8"?>
<svg id="Layer_1" xmlns="http://www.w3.org/2000/svg" version="1.1" viewBox="0 0 64 64">
  <!-- Generator: Adobe Illustrator 29.7.1, SVG Export Plug-In . SVG Version: 2.1.1 Build 8)  -->
  <defs>
    <style>
      .st0 {
        fill: #fff;
      }
    </style>
  </defs>
  <path class="st0" d="M45.12,13.47v13.69h-6.23v-3.67c0-1.33-.22-2.27-.67-2.82-.44-.55-1.23-.86-2.36-.92v18.52c0,1.2.11,2.01.33,2.44s.7.73,1.44.91v5.47h-11.25v-5.47c.74-.18,1.22-.48,1.44-.9.22-.42.33-1.23.33-2.45v-18.52c-1.12.1-1.9.44-2.36,1.03-.46.59-.69,1.55-.69,2.88v3.5h-6.23v-13.69h26.25Z"/>
</svg>