<?xml version="1.0" encoding="UTF-8"?>
<svg id="Layer_1" xmlns="http://www.w3.org/2000/svg" version="1.1" viewBox="0 0 64 64">
  <!-- Generator: Adobe Illustrator 29.7.1, SVG Export Plug-In . SVG Version: 2.1.1 Build 8)  -->
  <defs>
    <style>
      .st0 {
        fill: #fff;
      }
    </style>
  </defs>
  <path class="st0" d="M52.68,4.99v21.58h-9.82v-5.78c0-2.1-.35-3.58-1.05-4.44-.7-.87-1.94-1.35-3.72-1.46v29.18c0,1.89.17,3.17.52,3.84s1.11,1.15,2.27,1.43v8.62h-17.73v-8.62c1.17-.28,1.92-.76,2.27-1.42.35-.66.52-1.95.52-3.86V14.89c-1.76.16-3,.7-3.73,1.63-.72.93-1.08,2.44-1.08,4.54v5.51h-9.82V4.99h41.37Z"/>
</svg>